<svg id="Layer_1" data-name="Layer 1" xmlns="http://www.w3.org/2000/svg" viewBox="0 0 96 96"><path d="M49.46,94H3.25a1,1,0,0,1-1-1V86.31a5.44,5.44,0,0,1,5.44-5.43H45a5.44,5.44,0,0,1,5.44,5.43V93A1,1,0,0,1,49.46,94ZM4.25,92H48.46V86.31A3.44,3.44,0,0,0,45,82.88H7.69a3.44,3.44,0,0,0-3.44,3.43Z"/><path d="M40.77,82.88H11.93a1,1,0,0,1-1-1A15.35,15.35,0,0,1,21.75,67.16a1,1,0,0,1,1.25.65,1,1,0,0,1-.65,1.26A13.34,13.34,0,0,0,13,80.88H39.74a13.34,13.34,0,0,0-9.39-11.82,1,1,0,1,1,.59-1.91A15.35,15.35,0,0,1,41.77,81.88,1,1,0,0,1,40.77,82.88Z"/><path d="M26.35,74.75a5.3,5.3,0,0,1-5.3-5.3V46.21a1,1,0,0,1,2,0V69.45a3.31,3.31,0,0,0,6.61,0V46.2a1,1,0,0,1,2,0V69.45A5.31,5.31,0,0,1,26.35,74.75Z"/><path d="M29,31a1,1,0,0,1-.71-.3,1,1,0,0,1,0-1.41L44.06,13.51a1,1,0,0,1,1.42,1.42L29.71,30.69A1,1,0,0,1,29,31Z"/><path d="M34.93,37.25a1,1,0,0,1-.71-.29,1,1,0,0,1,0-1.42L50.11,19.65a1,1,0,0,1,1.41,1.41L35.64,37A1,1,0,0,1,34.93,37.25Z"/><path d="M76.56,29.84a1,1,0,0,1-.71-.29L61.16,14.87a1,1,0,1,1,1.41-1.41L77.26,28.13a1,1,0,0,1-.7,1.71Z"/><path d="M70,35.48a1,1,0,0,1-.71-.29L55.18,21.05a1,1,0,0,1,0-1.42,1,1,0,0,1,1.41,0L70.73,33.78a1,1,0,0,1-.7,1.7Z"/><path d="M26.35,71a1,1,0,0,1-.38-.07.87.87,0,0,1-.32-.22,1,1,0,0,1-.3-.71,1,1,0,0,1,.3-.7,1,1,0,0,1,1.41,0,1,1,0,0,1,.29.7,1,1,0,0,1-1,1Z"/><path d="M78.84,52.6a1.07,1.07,0,0,1-.25,0l-6.76-1.8a1,1,0,0,1-.7-.71l-2.94-11a1,1,0,0,1,.25-1l2.1-2.1A1,1,0,0,1,72,37.45l-1.69,1.69L72.91,49l6.19,1.66a1,1,0,0,1-.26,2Z"/><path d="M92.75,39a1,1,0,0,1-1-.74l-1.73-6.48L80.21,29.2,78.9,30.5a1,1,0,1,1-1.41-1.41l1.71-1.72a1,1,0,0,1,1-.25l11,2.92a1,1,0,0,1,.71.71l1.87,7A1,1,0,0,1,93,39,.73.73,0,0,1,92.75,39Z"/><path d="M26.35,48.33a9.87,9.87,0,1,1,9.87-9.87A9.88,9.88,0,0,1,26.35,48.33Zm0-17.73a7.87,7.87,0,1,0,7.87,7.86A7.87,7.87,0,0,0,26.35,30.6Z"/><path d="M26.35,42.42a4,4,0,1,1,4-4A4,4,0,0,1,26.35,42.42Zm0-5.92a2,2,0,1,0,2,2A2,2,0,0,0,26.35,36.5Z"/><path d="M53.32,21.73a9.87,9.87,0,1,1,9.86-9.86A9.88,9.88,0,0,1,53.32,21.73ZM53.32,4a7.87,7.87,0,1,0,7.86,7.87A7.88,7.88,0,0,0,53.32,4Z"/><path d="M53.32,15.82a4,4,0,1,1,4-4A4,4,0,0,1,53.32,15.82Zm0-5.91a2,2,0,1,0,2,2A2,2,0,0,0,53.32,9.91Z"/><path d="M75,39.44a5.94,5.94,0,1,1,5.93-5.94A5.94,5.94,0,0,1,75,39.44Zm0-9.87a3.94,3.94,0,1,0,3.93,3.93A3.93,3.93,0,0,0,75,29.57Z"/><path d="M75,34.5a1,1,0,0,1-.38-.07,1.06,1.06,0,0,1-.33-.22,1,1,0,0,1-.22-.32A1,1,0,0,1,74,33.5a1,1,0,0,1,.29-.7,1,1,0,0,1,1.09-.22.87.87,0,0,1,.32.22,1,1,0,0,1,.3.7,1,1,0,0,1-.08.39.87.87,0,0,1-.22.32A1,1,0,0,1,75,34.5Z"/><path d="M22.3,22.15a1,1,0,0,1-1-1A13.41,13.41,0,0,1,34.7,7.75a1,1,0,0,1,0,2,11.41,11.41,0,0,0-11.4,11.4A1,1,0,0,1,22.3,22.15Z"/><path d="M17.49,22.15a1,1,0,0,1-1-1A18.23,18.23,0,0,1,34.7,2.94a1,1,0,0,1,0,2A16.23,16.23,0,0,0,18.49,21.15,1,1,0,0,1,17.49,22.15Z"/><path d="M27.11,22.15a1,1,0,0,1-1-1,8.6,8.6,0,0,1,8.59-8.59,1,1,0,0,1,0,2,6.59,6.59,0,0,0-6.59,6.59A1,1,0,0,1,27.11,22.15Z"/></svg>