<?xml version="1.0" encoding="iso-8859-1"?>
<!-- Generator: Adobe Illustrator 18.1.1, SVG Export Plug-In . SVG Version: 6.00 Build 0)  -->
<svg version="1.1" id="Capa_1" xmlns="http://www.w3.org/2000/svg" xmlns:xlink="http://www.w3.org/1999/xlink" x="0px" y="0px"
	 viewBox="0 0 66.268 66.268" style="enable-background:new 0 0 66.268 66.268;" xml:space="preserve">
<g>
	<path d="M66.267,17.841l-1.605,2.033c-0.045,0.057-4.436,5.576-12.115,12.018c-9.896-11.295-22.539-12.19-26.235-12.19
		c-0.789,0-1.239,0.039-1.239,0.039C4.691,20.86,0.364,32.31,0.189,32.796L0,33.325l0.393,0.402
		c7.416,7.605,16.316,11.625,25.738,11.625c7.179,0,14.481-2.369,20.562-6.674c1.898-1.342,3.784-2.771,5.619-4.26
		c0.056,0.068,0.111,0.139,0.167,0.211l13.789,13.797L66.267,17.841z M45.653,37.21c-5.78,4.09-12.713,6.344-19.523,6.344
		c-8.745,0-17.038-3.68-24.018-10.646c1.082-2.139,6.346-10.451,23.086-11.371c0.021-0.002,0.417-0.033,1.112-0.033
		c3.498,0,15.453,0.846,24.847,11.533C49.358,34.495,47.511,35.896,45.653,37.21z M64.467,44.081L53.861,33.476
		c-0.053-0.067-0.106-0.133-0.158-0.199l0.008-0.008l-0.002-0.002c5.164-4.332,8.817-8.191,10.758-10.383V44.081z"/>
	<path d="M15.153,27.403c-2.638,0-4.784,2.146-4.784,4.785c0,2.637,2.146,4.783,4.784,4.783s4.784-2.146,4.784-4.783
		C19.938,29.55,17.791,27.403,15.153,27.403z M15.153,35.171c-1.646,0-2.983-1.338-2.983-2.982c0-1.646,1.338-2.984,2.983-2.984
		s2.983,1.338,2.983,2.984C18.137,33.833,16.799,35.171,15.153,35.171z"/>
</g>
<g>
</g>
<g>
</g>
<g>
</g>
<g>
</g>
<g>
</g>
<g>
</g>
<g>
</g>
<g>
</g>
<g>
</g>
<g>
</g>
<g>
</g>
<g>
</g>
<g>
</g>
<g>
</g>
<g>
</g>
</svg>
