<svg xmlns="http://www.w3.org/2000/svg" viewBox="0 0 96 96"><g id="icon"><path d="M64.76,80.39H39.34a4.39,4.39,0,0,1,0-8.78H64.76a4.39,4.39,0,1,1,0,8.78ZM39.34,73.11a2.89,2.89,0,0,0,0,5.78H64.76a2.89,2.89,0,1,0,0-5.78Z"/><path d="M64.76,87.67H39.34a4.39,4.39,0,0,1,0-8.78H64.76a4.39,4.39,0,1,1,0,8.78ZM39.34,80.39a2.89,2.89,0,0,0,0,5.78H64.76a2.89,2.89,0,1,0,0-5.78Z"/><path d="M52.05,35H41.39a.73.73,0,0,1-.67-.42.75.75,0,0,1,.09-.8A5.7,5.7,0,0,0,42,30.24a5.94,5.94,0,0,0-11.88,0,6,6,0,0,0,1.17,3.59.75.75,0,0,1,.07.79.76.76,0,0,1-.67.41H20.47a.77.77,0,0,1-.54-.22.72.72,0,0,1-.21-.54,32.5,32.5,0,0,1,32.33-32h0A.75.75,0,0,1,52.8,3v8.61a7.58,7.58,0,0,1,3.28-.74,7.44,7.44,0,0,1,0,14.88A7.26,7.26,0,0,1,52.8,25v9.29A.76.76,0,0,1,52.05,35Zm-9.3-1.5H51.3V23.62a.74.74,0,0,1,.42-.67.75.75,0,0,1,.8.09,5.62,5.62,0,0,0,3.56,1.21A5.94,5.94,0,1,0,52.5,13.54a.75.75,0,0,1-.79.07.74.74,0,0,1-.41-.67V3.76A31,31,0,0,0,21.23,33.53h8.15a7.69,7.69,0,0,1-.74-3.29,7.44,7.44,0,1,1,14.11,3.29Z"/><path d="M68.06,45.77A7.46,7.46,0,0,1,61.34,35H52.05a.75.75,0,0,1-.75-.75V23.62a.74.74,0,0,1,.42-.67.75.75,0,0,1,.8.09,5.62,5.62,0,0,0,3.56,1.21A5.94,5.94,0,1,0,52.5,13.54a.75.75,0,0,1-.79.07.74.74,0,0,1-.41-.67V3a.75.75,0,0,1,.75-.75,36.73,36.73,0,0,1,3.87.22A32.6,32.6,0,0,1,84.07,30.09a34.81,34.81,0,0,1,.31,4.18.78.78,0,0,1-.21.54.79.79,0,0,1-.54.22H74.72a7.46,7.46,0,0,1-6.66,10.74ZM52.8,33.53h9.9a.75.75,0,0,1,.59,1.22,5.7,5.7,0,0,0-1.21,3.57,6,6,0,1,0,10.71-3.59.75.75,0,0,1-.07-.79.74.74,0,0,1,.67-.41h9.47a31.56,31.56,0,0,0-.28-3.24A31.07,31.07,0,0,0,55.75,4c-1.06-.11-2-.18-3-.2v7.85a7.58,7.58,0,0,1,3.28-.74,7.44,7.44,0,0,1,0,14.88A7.26,7.26,0,0,1,52.8,25Z"/><path d="M63.69,73.14H52.05a.75.75,0,0,1-.75-.75V57a7.43,7.43,0,0,1-3.22.74H48a7.29,7.29,0,0,1-7.36-6.46,7.54,7.54,0,0,1,1.82-5.94,7.4,7.4,0,0,1,8.83-1.73v-9.3a.75.75,0,0,1,.75-.75H62.7a.75.75,0,0,1,0,1.5H52.8v9.91a.75.75,0,0,1-1.21.59A5.76,5.76,0,0,0,48,44.31a5.9,5.9,0,0,0-4.42,2,6.07,6.07,0,0,0-1.46,4.76A5.82,5.82,0,0,0,48,56.21h.06A5.8,5.8,0,0,0,51.59,55a.73.73,0,0,1,.79-.08.75.75,0,0,1,.42.67v16H63a14.74,14.74,0,0,1,6.39-11.55A30.79,30.79,0,0,0,82.88,35H74.72a7.49,7.49,0,0,1,.76,3.29.75.75,0,1,1-1.5,0,6,6,0,0,0-1.19-3.59.75.75,0,0,1-.07-.79.74.74,0,0,1,.67-.41H83.63a.75.75,0,0,1,.75.74A32.26,32.26,0,0,1,70.19,61.33a13.29,13.29,0,0,0-5.75,11.06A.75.75,0,0,1,63.69,73.14Z"/><path d="M52.05,73.11H40.38a.74.74,0,0,1-.75-.75A13.45,13.45,0,0,0,34.42,61.7a.75.75,0,1,1,.92-1.18,14.93,14.93,0,0,1,5.77,11.09H51.3v-16a.75.75,0,1,1,1.5,0V72.36A.75.75,0,0,1,52.05,73.11Z"/><path d="M52.05,45.69a.75.75,0,0,1-.75-.75V35H41.4a.75.75,0,0,1,0-1.5H52.05a.75.75,0,0,1,.75.75V44.94A.76.76,0,0,1,52.05,45.69Z"/><path d="M21,41.31a.76.76,0,0,1-.74-.61,32.4,32.4,0,0,1-.58-6.09v-.33a.75.75,0,0,1,.75-.75H30.71a.75.75,0,1,1,0,1.5H21.22a30.23,30.23,0,0,0,.56,5.39.76.76,0,0,1-.6.88Z"/><path d="M52.05,93.75a9.43,9.43,0,0,1-9-6.6.76.76,0,0,1,.11-.67.78.78,0,0,1,.61-.31h16.6a.77.77,0,0,1,.61.31.76.76,0,0,1,.11.67A9.43,9.43,0,0,1,52.05,93.75Zm-7.21-6.08a8,8,0,0,0,14.42,0Z"/><path d="M25.2,66.28A13.59,13.59,0,1,1,38.79,52.7,13.59,13.59,0,0,1,25.2,66.28Zm0-25.67A12.09,12.09,0,1,0,37.29,52.7,12.1,12.1,0,0,0,25.2,40.61Z"/><path d="M25.2,60.33a4.64,4.64,0,0,1-4.72-3.58A.75.75,0,0,1,22,56.5a3.14,3.14,0,0,0,3.24,2.33A3.33,3.33,0,0,0,28.3,57a2.5,2.5,0,0,0-1-3,5.42,5.42,0,0,0-2.12-.52,9.88,9.88,0,0,1-1.88-.36,4.11,4.11,0,0,1-2.87-3.83,4.51,4.51,0,0,1,4.77-4.19,4.7,4.7,0,0,1,4.68,3.32.77.77,0,0,1-.56.91.75.75,0,0,1-.9-.56,3.19,3.19,0,0,0-3.22-2.17,3,3,0,0,0-3.27,2.69,2.61,2.61,0,0,0,1.83,2.41,8.58,8.58,0,0,0,1.6.29,6.71,6.71,0,0,1,2.68.7,4,4,0,0,1,1.65,4.93A4.79,4.79,0,0,1,25.2,60.33Z"/><path d="M25.2,46.56a.76.76,0,0,1-.75-.75V43.9a.75.75,0,0,1,1.5,0v1.91A.75.75,0,0,1,25.2,46.56Z"/><path d="M25.2,62.24a.76.76,0,0,1-.75-.75V59.58a.75.75,0,0,1,1.5,0v1.91A.75.75,0,0,1,25.2,62.24Z"/></g></svg>